HIERARCHY
ROOT root
{
	OFFSET	0	13.1	24.9
	CHANNELS 6  Xposition Yposition Zposition Xrotation Yrotation Zrotation
	JOINT spine_1
	{
		OFFSET	0	9.99999	0
		CHANNELS 3  Xrotation Yrotation Zrotation
		JOINT spine_2
		{
			OFFSET	0	112	-10
			CHANNELS 3  Xrotation Yrotation Zrotation
			JOINT spine_3
			{
				OFFSET	0	206.5	19.3
				CHANNELS 3  Xrotation Yrotation Zrotation
				JOINT spine_4
				{
					OFFSET	0	110.4	14.6
					CHANNELS 3  Xrotation Yrotation Zrotation
					JOINT neck_1
					{
						OFFSET	0	71.8	-50.3
						CHANNELS 3  Xrotation Yrotation Zrotation
						JOINT neck_2
						{
							OFFSET	0	86.2	-25.8
							CHANNELS 3  Xrotation Yrotation Zrotation
							JOINT head_ee
							{
								OFFSET	0	179.8	-8.7
								CHANNELS 3  Xrotation Yrotation Zrotation
								End Site
								{
									OFFSET	1	0	0
								}
							}
						}
					}
					JOINT left_clavicle
					{
						OFFSET	-43.2	22.4	-70.8
						CHANNELS 3  Xrotation Yrotation Zrotation
						JOINT left_shoulder
						{
							OFFSET	-93.9	-5.79999	48.7
							CHANNELS 3  Xrotation Yrotation Zrotation
							JOINT left_elbow
							{
								OFFSET	-291.4	-30.8	15.2
								CHANNELS 3  Xrotation Yrotation Zrotation
								JOINT left_lowarm_twist
								{
									OFFSET	-110.7	-3.89999	13.6
									CHANNELS 3  Xrotation Yrotation Zrotation
									JOINT left_hand
									{
										OFFSET	-110.7	-3.89999	13.6
										CHANNELS 3  Xrotation Yrotation Zrotation
										JOINT left_ee
										{
											OFFSET	-80.8	-5.10001	12.1
											CHANNELS 3  Xrotation Yrotation Zrotation
											End Site
											{
												OFFSET	1	0	0
											}
										}
									}
								}
							}
						}
					}
					JOINT right_clavicle
					{
						OFFSET	43.2	22.4	-70.8
						CHANNELS 3  Xrotation Yrotation Zrotation
						JOINT right_shoulder
						{
							OFFSET	93.9	-5.79999	48.7
							CHANNELS 3  Xrotation Yrotation Zrotation
							JOINT right_elbow
							{
								OFFSET	291.4	-30.8	15.2
								CHANNELS 3  Xrotation Yrotation Zrotation
								JOINT right_lowarm_twist
								{
									OFFSET	110.7	-3.89999	13.6
									CHANNELS 3  Xrotation Yrotation Zrotation
									JOINT right_hand
									{
										OFFSET	110.7	-3.89999	13.6
										CHANNELS 3  Xrotation Yrotation Zrotation
										JOINT right_ee
										{
											OFFSET	80.8	-5.10001	12.1
											CHANNELS 3  Xrotation Yrotation Zrotation
											End Site
											{
												OFFSET	1	0	0
											}
										}
									}
								}
							}
						}
					}
				}
			}
		}
	}
	JOINT left_hip
	{
		OFFSET	-82.8	-127.5	0.300001
		CHANNELS 3  Xrotation Yrotation Zrotation
		JOINT left_knee
		{
			OFFSET	-28.2	-396.7	2.2
			CHANNELS 3  Xrotation Yrotation Zrotation
			JOINT left_ankle
			{
				OFFSET	-11.7	-411.3	35.4
				CHANNELS 3  Xrotation Yrotation Zrotation
				JOINT left_toes
				{
					OFFSET	0	-60	-88.6
					CHANNELS 3  Xrotation Yrotation Zrotation
					JOINT left_foot_ee
					{
						OFFSET	-22.5	-16.5	-42.2
						CHANNELS 3  Xrotation Yrotation Zrotation
						End Site
						{
							OFFSET	1	0	0
						}
					}
				}
			}
		}
	}
	JOINT right_hip
	{
		OFFSET	82.8	-127.5	0.300001
		CHANNELS 3  Xrotation Yrotation Zrotation
		JOINT right_knee
		{
			OFFSET	28.2	-396.7	2.2
			CHANNELS 3  Xrotation Yrotation Zrotation
			JOINT right_ankle
			{
				OFFSET	11.7	-411.3	35.4
				CHANNELS 3  Xrotation Yrotation Zrotation
				JOINT right_toes
				{
					OFFSET	0	-60	-88.6
					CHANNELS 3  Xrotation Yrotation Zrotation
					JOINT right_foot_ee
					{
						OFFSET	22.5	-16.5	-42.2
						CHANNELS 3  Xrotation Yrotation Zrotation
						End Site
						{
							OFFSET	1	0	0
						}
					}
				}
			}
		}
	}
}
MOTION
Frames: 16
Frame Time: 0.02
999.446819764 723.733 -1558.58473882 -4.07948204095 75.0658333907 -0.0220266429785 0.366935 0.109782 0.527208 0.367086 0.0760121 0.533125 0.367866 -0.0342861 0.537424 0.367467 0.0510191 0.536094 -14.1984 14.6182 5.0026 -14.6371 24.9098 9.52639 -0.0 0.0 -0.0 3.06944 22.1301 6.90039 -20.6013 -17.8067 61.5829 0.835783 -22.4905 0.166178 -23.5165 -1.39193 2.64402 -0.15523 22.0085 7.91268 -0.0 0.0 -0.0 13.508 22.9166 -27.1884 -5.40844 14.3841 -57.9159 1.42413 35.1998 -0.451778 69.5574 2.69457 7.91518 2.70333 -10.5245 -22.2361 0.0 0.0 0.0 14.3723 23.8789 -5.3986 -46.0944 -0.899284 6.82944 14.7051 -6.99813 -2.12183 -6.07897 0.0 0.0 -0.0 0.0 -0.0 0.494076 14.8474 2.8278 5.86201 0.285386 0.853638 29.6966 25.7123 4.5355 -17.9256 0.0 0.0 0.0 0.0 0.0 
992.701952135 728.158 -1569.48399408 -3.07091178297 74.1983271106 -0.65171382611 0.50839 0.46156 0.539566 0.508451 0.426291 0.567842 0.512805 0.303202 0.642055 0.512454 0.400796 0.586115 -14.3689 13.9343 5.87877 -14.7111 23.0996 10.1307 -0.0 0.0 -0.0 3.16961 22.0795 7.04168 -20.9523 -18.5153 60.4884 0.667509 -18.2973 0.1075 -21.5503 -1.23503 2.44697 0.0367961 22.5653 9.25042 -0.0 0.0 -0.0 13.6436 22.8708 -27.5105 -4.59704 14.1753 -57.9318 1.47801 36.2079 -0.483226 73.4504 3.10604 8.19833 3.21797 -6.56701 -24.5393 0.0 0.0 0.0 17.3155 21.9708 -6.76966 -35.8538 -0.224273 5.40914 18.3891 3.77456 -2.53373 -6.09971 0.0 0.0 -0.0 0.0 -0.0 -0.594515 13.1435 1.57122 6.42077 0.31713 0.933423 30.95 22.5231 4.53716 -19.544 0.0 0.0 0.0 0.0 0.0 
992.458248043 728.158 -1568.49777788 -3.09937108421 74.3470190091 -0.622147668055 0.50839 0.46156 0.539566 0.508451 0.426291 0.567842 0.512805 0.303202 0.642055 0.512454 0.400796 0.586115 -14.3689 13.9343 5.87877 -14.7111 23.0996 10.1307 -0.0 0.0 -0.0 3.16961 22.0795 7.04168 -20.9523 -18.5153 60.4884 0.667509 -18.2973 0.1075 -21.5503 -1.23503 2.44697 0.0367961 22.5653 9.25042 -0.0 0.0 -0.0 13.6436 22.8708 -27.5105 -4.59704 14.1753 -57.9318 1.47801 36.2079 -0.483226 73.4504 3.10604 8.19833 3.21797 -6.56701 -24.5393 0.0 0.0 0.0 17.3155 21.9708 -6.76966 -35.8538 -0.224273 5.40914 18.3891 3.77456 -2.53373 -6.09971 0.0 0.0 -0.0 0.0 -0.0 -0.594515 13.1435 1.57122 6.42077 0.31713 0.933423 30.95 22.5231 4.53716 -19.544 0.0 0.0 0.0 0.0 0.0 
978.256113493 731.034 -1554.86488653 -5.23021419256 76.8896457893 2.09736114724 0.60417 0.535606 0.608738 0.604239 0.495786 0.641585 0.609951 0.357665 0.727673 0.609518 0.468096 0.662058 -15.9376 12.8389 6.50663 -16.2464 20.8816 10.644 -0.0 0.0 -0.0 3.16667 24.0853 7.07228 -21.5992 -19.9408 59.668 0.563756 -15.6035 0.0772432 -21.4797 -1.22952 2.43979 -0.162235 24.3593 8.75868 -0.0 0.0 -0.0 13.4229 22.7674 -27.0036 -3.33899 14.0296 -58.6132 1.51189 36.8288 -0.503386 76.0107 3.38675 8.36909 3.53319 -4.80617 -26.2103 0.0 0.0 0.0 18.8513 20.3443 -6.85309 -30.7428 0.0148975 4.66171 16.466 7.4737 -2.28338 -7.61587 0.0 0.0 -0.0 0.0 -0.0 -0.658224 11.3013 0.8286 5.53986 0.267441 0.807502 32.8805 21.5816 4.71311 -17.7299 0.0 0.0 0.0 0.0 0.0 
963.187968744 729.471 -1546.85360592 -4.93161281038 78.2471976097 2.01995316393 0.649098 0.635377 0.564938 0.649077 0.598141 0.604223 0.655535 0.465993 0.71113 0.655287 0.572453 0.628614 -16.3701 11.9225 6.75195 -16.6103 19.0476 10.6078 -0.0 0.0 -0.0 3.00908 24.9047 6.87298 -23.4792 -20.6753 58.8388 0.467508 -13.0394 0.0534291 -20.5369 -1.15683 2.34335 -0.181342 24.5202 8.70901 -0.0 0.0 -0.0 13.3925 22.7089 -26.9379 -2.43132 13.8185 -59.1724 1.56928 37.8578 -0.538198 78.793 3.7001 8.54027 3.70353 -2.08674 -26.447 0.0 0.0 0.0 19.8224 17.352 -7.15114 -26.8365 0.152177 4.07804 17.3571 11.9585 -2.40564 -7.67391 0.0 0.0 -0.0 0.0 -0.0 -1.39963 10.7451 0.483469 4.8996 0.232547 0.715519 36.8596 18.6484 5.0047 -16.3308 0.0 0.0 0.0 0.0 0.0 
943.975977223 725.862 -1530.22120292 -7.20869290835 80.9017321912 4.5875691326 0.855151 0.73972 0.641894 0.85511 0.697376 0.687663 0.863666 0.549611 0.810641 0.863377 0.670735 0.713671 -16.5937 11.2753 6.73127 -16.7952 17.8488 10.3842 -0.0 0.0 -0.0 2.61449 25.6475 6.36711 -25.2898 -21.042 58.2432 0.418378 -11.7091 0.0428999 -19.8072 -1.10167 2.2679 -0.187764 24.5241 8.67359 -0.0 0.0 -0.0 13.3863 22.6792 -26.9264 -1.00793 13.848 -59.9898 1.63755 39.0456 -0.580654 80.9723 3.9511 8.66362 3.74288 -0.438014 -26.0873 0.0 0.0 0.0 21.2274 14.7319 -7.37941 -24.0731 0.225094 3.66025 17.6853 14.6366 -2.45973 -7.75865 0.0 0.0 -0.0 0.0 -0.0 -2.30759 9.42147 0.617624 3.9361 0.181986 0.576392 37.816 15.5685 4.98613 -15.7878 0.0 0.0 0.0 0.0 0.0 
935.008529034 724.44 -1518.71204014 -10.2473775224 82.3560708444 7.82198675655 1.0405 0.759339 0.537343 1.04037 0.723608 0.584573 1.04789 0.597766 0.712748 1.04787 0.702828 0.6094 -12.5031 11.5602 5.21893 -12.6368 18.6681 8.37273 -0.0 0.0 -0.0 1.72357 24.5056 5.13548 -27.0303 -20.5629 59.7901 0.555796 -15.3937 0.0751161 -18.4279 -1.00007 2.12342 -0.0659607 24.0007 9.18087 -0.0 0.0 -0.0 13.3067 22.8296 -26.7262 0.760489 13.2206 -59.8122 1.63016 38.919 -0.576008 82.3623 4.11357 8.73728 3.51343 0.875448 -23.855 0.0 0.0 0.0 21.5842 12.2777 -7.03407 -20.7162 0.286438 3.14886 13.2385 13.0963 -1.86806 -9.49683 0.0 0.0 -0.0 0.0 -0.0 -2.52823 7.13774 0.215835 3.78884 0.174464 0.555055 37.3173 12.5174 4.84852 -15.9731 0.0 0.0 0.0 0.0 0.0 
921.685273271 727.136 -1504.10280142 -18.9366074392 84.3384459635 16.9382846288 1.18925 0.466799 0.555233 1.18932 0.430522 0.58381 1.19381 0.311938 0.654886 1.19344 0.411448 0.597406 -11.7032 11.3023 4.1272 -11.8387 18.7582 7.12986 -0.0 0.0 -0.0 1.84291 24.0634 5.27188 -27.6134 -18.0719 60.9498 0.519606 -14.4347 0.0658017 -17.9327 -0.964443 2.07096 0.0256758 23.7446 9.61808 -0.0 0.0 -0.0 13.2651 22.9118 -26.6214 1.80623 12.8598 -60.2938 1.66474 39.5079 -0.597869 83.3238 4.22697 8.78592 3.40556 0.873386 -23.0663 0.0 0.0 0.0 21.0105 10.8591 -6.41994 -12.6335 0.310668 1.90999 10.2505 15.395 -1.46837 -10.5482 0.0 0.0 -0.0 0.0 -0.0 -2.80419 7.25678 -0.119883 3.31885 0.150829 0.486832 36.9105 9.3925 4.73475 -16.118 0.0 0.0 0.0 0.0 0.0 
901.725812016 723.737 -1493.95309364 -20.6261774299 85.6437382173 18.5448558219 1.17416 0.458732 0.529273 1.17421 0.424124 0.55739 1.17844 0.310499 0.627817 1.17812 0.405753 0.570902 -9.72231 11.8441 2.84103 -9.82885 20.3659 5.70824 -0.0 0.0 -0.0 0.601183 24.2819 3.61149 -27.925 -16.5668 62.9721 0.660317 -18.1131 0.105253 -18.0762 -0.974722 2.08619 0.254222 22.9996 10.6858 -0.0 0.0 -0.0 13.1545 23.2899 -26.3274 2.55595 12.5648 -60.2722 1.69054 39.941 -0.614361 83.6613 4.26696 8.80254 3.2093 0.561123 -21.7683 0.0 0.0 0.0 22.7564 9.52266 -6.71 -5.99058 0.199887 0.897232 7.94537 13.937 -1.14324 -13.1473 0.0 0.0 -0.0 0.0 -0.0 -5.09567 7.06607 0.254525 2.30668 0.101839 0.339278 39.0969 5.10921 4.85467 -15.4829 0.0 0.0 0.0 0.0 0.0 
901.497651454 723.737 -1486.89295499 -25.4924760489 86.4356065106 23.4226720579 1.17416 0.458732 0.529273 1.17421 0.424124 0.55739 1.17844 0.310499 0.627817 1.17812 0.405753 0.570902 -9.72231 11.8441 2.84103 -9.82885 20.3659 5.70824 -0.0 0.0 -0.0 0.601183 24.2819 3.61149 -27.925 -16.5668 62.9721 0.660317 -18.1131 0.105253 -18.0762 -0.974722 2.08619 0.254222 22.9996 10.6858 -0.0 0.0 -0.0 13.1545 23.2899 -26.3274 2.55595 12.5648 -60.2722 1.69054 39.941 -0.614361 83.6613 4.26696 8.80254 3.2093 0.561123 -21.7683 0.0 0.0 0.0 22.7564 9.52266 -6.71 -5.99058 0.199887 0.897232 7.94537 13.937 -1.14324 -13.1473 0.0 0.0 -0.0 0.0 -0.0 -5.09567 7.06607 0.254525 2.30668 0.101839 0.339278 39.0969 5.10921 4.85467 -15.4829 0.0 0.0 0.0 0.0 0.0 
891.381804112 722.383 -1476.64304675 -39.0266027739 87.168725369 37.4846671993 1.13062 0.259732 0.633658 1.13082 0.218886 0.6489 1.13338 0.0910657 0.67874 1.13279 0.197115 0.655841 -9.81896 11.6924 2.56048 -9.9325 20.2818 5.41496 -0.0 0.0 -0.0 -0.17537 24.0014 2.53597 -28.4069 -15.5785 65.1016 0.741377 -20.1661 0.131835 -16.9866 -0.897659 1.9699 0.435413 21.4899 11.2275 -0.0 0.0 -0.0 13.0216 23.5966 -25.9882 3.48749 12.5437 -60.711 1.85545 42.583 -0.723147 85.2334 4.45449 8.87683 3.05795 -0.0523069 -20.9256 0.0 0.0 0.0 23.0044 8.32415 -7.37115 0.0641638 -0.00264753 -0.00949056 3.85725 10.2882 -0.55924 -15.2745 0.0 0.0 -0.0 0.0 -0.0 -5.32108 6.9095 -0.0547588 2.02816 0.0888164 0.298528 38.2767 5.37267 4.78575 -15.8219 0.0 0.0 0.0 0.0 0.0 
891.400899363 722.383 -1470.70539518 -50.0719171883 87.6754746681 48.5409941547 1.13062 0.259732 0.633658 1.13082 0.218886 0.6489 1.13338 0.0910657 0.67874 1.13279 0.197115 0.655841 -9.81896 11.6924 2.56048 -9.9325 20.2818 5.41496 -0.0 0.0 -0.0 -0.17537 24.0014 2.53597 -28.4069 -15.5785 65.1016 0.741377 -20.1661 0.131835 -16.9866 -0.897659 1.9699 0.435413 21.4899 11.2275 -0.0 0.0 -0.0 13.0216 23.5966 -25.9882 3.48749 12.5437 -60.711 1.85545 42.583 -0.723147 85.2334 4.45449 8.87683 3.05795 -0.0523069 -20.9256 0.0 0.0 0.0 23.0044 8.32415 -7.37115 0.0641638 -0.00264753 -0.00949056 3.85725 10.2882 -0.55924 -15.2745 0.0 0.0 -0.0 0.0 -0.0 -5.32108 6.9095 -0.0547588 2.02816 0.0888164 0.298528 38.2767 5.37267 4.78575 -15.8219 0.0 0.0 0.0 0.0 0.0 
891.499550093 722.383 -1464.48665505 -67.157650403 88.0659084081 65.6382607578 1.13062 0.259732 0.633658 1.13082 0.218886 0.6489 1.13338 0.0910657 0.67874 1.13279 0.197115 0.655841 -9.81896 11.6924 2.56048 -9.9325 20.2818 5.41496 -0.0 0.0 -0.0 -0.17537 24.0014 2.53597 -28.4069 -15.5785 65.1016 0.741377 -20.1661 0.131835 -16.9866 -0.897659 1.9699 0.435413 21.4899 11.2275 -0.0 0.0 -0.0 13.0216 23.5966 -25.9882 3.48749 12.5437 -60.711 1.85545 42.583 -0.723147 85.2334 4.45449 8.87683 3.05795 -0.0523069 -20.9256 0.0 0.0 0.0 23.0044 8.32415 -7.37115 0.0641638 -0.00264753 -0.00949056 3.85725 10.2882 -0.55924 -15.2745 0.0 0.0 -0.0 0.0 -0.0 -5.32108 6.9095 -0.0547588 2.02816 0.0888164 0.298528 38.2767 5.37267 4.78575 -15.8219 0.0 0.0 0.0 0.0 0.0 
891.768133695 722.383 -1455.89984217 -98.7056758794 88.1968567857 97.2022159717 1.13062 0.259732 0.633658 1.13082 0.218886 0.6489 1.13338 0.0910657 0.67874 1.13279 0.197115 0.655841 -9.81896 11.6924 2.56048 -9.9325 20.2818 5.41496 -0.0 0.0 -0.0 -0.17537 24.0014 2.53597 -28.4069 -15.5785 65.1016 0.741377 -20.1661 0.131835 -16.9866 -0.897659 1.9699 0.435413 21.4899 11.2275 -0.0 0.0 -0.0 13.0216 23.5966 -25.9882 3.48749 12.5437 -60.711 1.85545 42.583 -0.723147 85.2334 4.45449 8.87683 3.05795 -0.0523069 -20.9256 0.0 0.0 0.0 23.0044 8.32415 -7.37115 0.0641638 -0.00264753 -0.00949056 3.85725 10.2882 -0.55924 -15.2745 0.0 0.0 -0.0 0.0 -0.0 -5.32108 6.9095 -0.0547588 2.02816 0.0888164 0.298528 38.2767 5.37267 4.78575 -15.8219 0.0 0.0 0.0 0.0 0.0 
733.608323288 678.875 -1366.64890883 -127.436377689 84.8316888778 130.30238373 2.14497 0.24325 0.93481 2.14544 0.183275 0.948392 2.14846 0.0160808 0.965804 2.1472 0.168403 0.951146 -8.37855 -1.15611 -1.07407 -8.37584 -1.40769 -1.31884 -0.0 0.0 -0.0 -1.02347 23.7549 1.35523 -21.8444 -11.3122 68.183 0.49194 -13.6958 0.0590778 -9.33802 -0.421024 1.11582 2.5773 17.8925 23.624 -0.0 0.0 -0.0 12.6334 25.1927 -24.9232 10.2671 13.2319 -58.852 2.3711 49.5826 -1.09529 79.016 3.72557 8.55333 1.02905 -10.1668 -10.8627 0.0 0.0 0.0 31.9374 0.509302 -12.4189 -6.18244 0.204731 0.926276 -5.3819 -8.09007 0.831554 -8.63556 0.0 0.0 -0.0 0.0 -0.0 -11.0967 8.54956 -0.90509 -8.93489 -0.263481 -1.34453 40.0286 12.8443 5.10261 -20.7447 0.0 0.0 0.0 0.0 0.0 
733.974130907 678.875 -1364.5193149 -129.077204844 84.7133060093 131.950062129 2.14497 0.24325 0.93481 2.14544 0.183275 0.948392 2.14846 0.0160808 0.965804 2.1472 0.168403 0.951146 -8.37855 -1.15611 -1.07407 -8.37584 -1.40769 -1.31884 -0.0 0.0 -0.0 -1.02347 23.7549 1.35523 -21.8444 -11.3122 68.183 0.49194 -13.6958 0.0590778 -9.33802 -0.421024 1.11582 2.5773 17.8925 23.624 -0.0 0.0 -0.0 12.6334 25.1927 -24.9232 10.2671 13.2319 -58.852 2.3711 49.5826 -1.09529 79.016 3.72557 8.55333 1.02905 -10.1668 -10.8627 0.0 0.0 0.0 31.9374 0.509302 -12.4189 -6.18244 0.204731 0.926276 -5.3819 -8.09007 0.831554 -8.63556 0.0 0.0 -0.0 0.0 -0.0 -11.0967 8.54956 -0.90509 -8.93489 -0.263481 -1.34453 40.0286 12.8443 5.10261 -20.7447 0.0 0.0 0.0 0.0 0.0 
